# xmcd CD database file
# Generated: mar sep 16 02:23:52 2003 by KSCD
# 
# Track frame offsets:
#       150
#       12895
#       36800
#       54700
#       73199
#       85893
#       110282
#       126054
#       146307
#       163564
#       183805
#       203109
#
# Disc length: 3012 seconds
#
# Revision: 3
# Processed by: cddbd v1.4PL0 Copyright (c) Steve Scherf et al.
# Submitted via: Kscd 1.3.3
#
DISCID=9b0bc20c
DTITLE=buddy guy - blues Singer
DYEAR=1900
DGENRE=
TTITLE0=Every young
TTITLE1=
TTITLE2=
TTITLE3=
TTITLE4=
TTITLE5=
TTITLE6=
TTITLE7=
TTITLE8=
TTITLE9=
TTITLE10=
TTITLE11=
EXTD=
EXTT0=
EXTT1=
EXTT2=
EXTT3=
EXTT4=
EXTT5=
EXTT6=
EXTT7=
EXTT8=
EXTT9=
EXTT10=
EXTT11=
PLAYORDER=
